<svg xmlns="http://www.w3.org/2000/svg" width="56" height="63.073" viewBox="0 0 56 63.073"><defs><style>.a{fill:#707070;}</style></defs><g transform="translate(0 0.047)"><path class="a" d="M872.77,660.789V659.2l-.6,1.585H871.9l-.608-1.585v1.585h-.618v-2.4h.859l.5,1.322.493-1.322h.859v2.4Z" transform="translate(-857.422 -607.527)"/><path class="a" d="M908.22,660.789v-2.4h1.757v.539h-1.136v.383h1.113v.539h-1.113v.406h1.138v.534Z" transform="translate(-888.805 -607.527)"/><path class="a" d="M939.48,660.789v-2.4h1.755v.539H940.1v.383h1.11v.539h-1.113v.406h1.138v.534Z" transform="translate(-914.932 -607.527)"/><path class="a" d="M970.573,660.789v-1.861H969.9v-.539h1.958v.539h-.668v1.861Z" transform="translate(-940.356 -607.527)"/><path class="a" d="M1002,659.815V658.39h.629v1.4a.5.5,0,0,0,1.008,0v-1.4h.626v1.422c0,.6-.36,1.017-1.128,1.017S1002,660.405,1002,659.815Z" transform="translate(-967.185 -607.527)"/><path class="a" d="M1036.77,660.785v-2.4h1.2a.8.8,0,1,1,0,1.591h-.581v.808Zm1.4-1.6a.268.268,0,0,0-.3-.259h-.493v.514h.493a.266.266,0,0,0,.3-.258Z" transform="translate(-996.245 -607.522)"/><path class="a" d="M861.311,650.652v-1.384a.478.478,0,0,0-.951-.072.358.358,0,0,0,0,.072V650.7a.149.149,0,0,0,.071.122c.041.328.164,2.447-2.944,3.506L841.6,660.72a10.116,10.116,0,0,1-4.068.843,10.422,10.422,0,0,1-4.143-.833l-.041-.015-15.874-6.395c-3.337-1.135-3.046-3.523-3.043-3.546a.136.136,0,0,0-.056-.126v-1.381a.478.478,0,0,0-.949-.072.357.357,0,0,0,0,.072v1.417c0,.056,0,.174.012.328.077,1.1.636,3.161,3.682,4.2L833,661.587a11.235,11.235,0,0,0,8.968.008l15.8-6.377a5.018,5.018,0,0,0,3.472-3.033A2.419,2.419,0,0,0,861.311,650.652Z" transform="translate(-809.581 -599.499)"/><path class="a" d="M813.822,378.562a.478.478,0,0,0,.478-.478V351.743h1.677v26.341a.347.347,0,0,0,.008.072.478.478,0,0,0,.949-.072V351.743h5.889a8.133,8.133,0,0,0-.406,2.161H818.85a.478.478,0,0,0-.072.949.349.349,0,0,0,.072.008h3.531a17.575,17.575,0,0,0,.205,2.628H818.85a.478.478,0,0,0-.072.951.51.51,0,0,0,.072,0h3.831a.482.482,0,0,0,.069,0,27.433,27.433,0,0,0,.685,2.665c.023.074.044.145.064.214h-5.125a.478.478,0,0,0-.072.949.347.347,0,0,0,.072.008h.957v15.8a.351.351,0,0,0,.008.072.478.478,0,0,0,.951-.072v-15.8h34v15.8a.51.51,0,0,0,0,.072.478.478,0,0,0,.951-.072v-9.1H857.4v9.1a.34.34,0,0,0,0,.072.478.478,0,0,0,.951-.072v-9.7c0-.264-.094-.358-.36-.358h-2.754v-5.748h1.2a.35.35,0,0,0,.072-.008.478.478,0,0,0-.072-.949h-4.309v-2.394h3.95c.108,0,.36-.059.36-.6v-2.994h3.831v22.75a.349.349,0,0,0,0,.072.478.478,0,0,0,.951-.072V354.736c0-.264-.1-.36-.36-.36h-4.79c-.54,0-.6.251-.6.36v3.232h-3.352v-6.106c0-.264-.1-.36-.36-.36h-1.478l.706-2.564a.419.419,0,0,0-.079-.389.463.463,0,0,0-.383-.164h-7.448a.389.389,0,0,0-.342.133.537.537,0,0,0-.076.452l.737,2.527h-1.435c-.54,0-.6.251-.6.36v6.92l-3.527-3.585a.462.462,0,0,0-.657.062l-1.9,1.99h-4.087c-.54,0-.6.251-.6.36v1.554h-1.918v-4.434c0-.264-.094-.36-.36-.36h-4.955a7.92,7.92,0,0,1,.6-2.979.425.425,0,0,0-.036-.425.447.447,0,0,0-.4-.187H813.94c-.54,0-.6.251-.6.36v26.933a.357.357,0,0,0,0,.072A.476.476,0,0,0,813.822,378.562Zm41.185-10.3v-.12a.12.12,0,0,0,.12.12Zm-3.12-6.823a.12.12,0,0,0,.12.12h-.12Zm-2.6-9.939h-4.907l-.636-2.155H849.9Zm-6.981.959h8.868v8.86h-7.282l-1.578-1.578ZM841.5,360.2l.391.437.657.685h-9.986l4.991-5.047Zm-9.968-.675v-1.314h2.782l-3.12,3.12h-6.686l-.035-.117a24.073,24.073,0,0,1-1.123-5.871h4.358v4.191a.713.713,0,0,0,.6.6h2.876c.107-.01.358-.069.358-.609Zm-8.814-1.792Zm29.288.475h-.12v-.12a.118.118,0,0,0,.128.12Zm-5.148-9.578Zm-18.3,10.775h-.12v-.12A.12.12,0,0,0,828.556,359.405Z" transform="translate(-809.506 -348.43)"/><path class="a" d="M897.605,452.827l-2.5,2.069-2.385-2.073a.493.493,0,0,0-.619,0l-2.5,2.073-2.384-2.073a.493.493,0,0,0-.619,0L883.961,455l-2.5-2.174a.493.493,0,0,0-.619,0l-2.5,2.069-2.386-2.066a.493.493,0,0,0-.619,0l-2.754,2.281a.506.506,0,0,0-.148.539l2.754,8.231.016.051a.45.45,0,0,0,.434.394h0c.238,0,.4-.289.453-.443l2.327-6.82,2.286,6.83.01.028a.475.475,0,0,0,.44.4h0c.24,0,.4-.289.455-.443l2.429-7.177,2.406,7.183c.046.14.145.427.448.43h0c.238,0,.4-.289.453-.443l2.314-6.817,2.288,6.83c.084.248.21.383.374.415a.2.2,0,0,0,.077.015h0c.238,0,.4-.289.453-.443l2.317-6.81,2.288,6.83c.092.269.261.43.453.43h0c.238,0,.4-.289.452-.443l2.754-8.109a.5.5,0,0,0-.138-.532l-2.754-2.408a.493.493,0,0,0-.616,0Zm.3.985,2.2,1.917-2.192,6.393-2.2-6.5Zm-3.3,1.917-2.192,6.393-2.2-6.5,2.186-1.806Zm-5.508,0-2.192,6.393-2.2-6.5,2.186-1.806Zm-5.748,0-2.191,6.393-2.2-6.5,2.187-1.806Zm-5.508,0-2.191,6.393-2.2-6.5,2.186-1.806Z" transform="translate(-858.873 -435.627)"/><path class="a" d="M998.968,382.919a.349.349,0,0,0,.072.008h5.748a.368.368,0,0,0,.074-.008.478.478,0,0,0-.074-.949H999.04a.478.478,0,0,0-.072.949Z" transform="translate(-964.317 -376.501)"/><path class="a" d="M998.968,397.5a.345.345,0,0,0,.072.008h5.748a.367.367,0,0,0,.074-.008.478.478,0,0,0-.074-.949h-5.748a.478.478,0,0,0-.072.949Z" transform="translate(-964.317 -388.687)"/><path class="a" d="M999.008,412.161h5.748a.542.542,0,0,0,.074,0,.478.478,0,0,0-.074-.951h-5.748a.478.478,0,0,0-.072.951.519.519,0,0,0,.072,0Z" transform="translate(-964.281 -400.939)"/><path class="a" d="M885.636,397.86a.5.5,0,1,0,.5.5A.5.5,0,0,0,885.636,397.86Z" transform="translate(-869.508 -389.782)"/><circle class="a" cx="0.503" cy="0.503" r="0.503" transform="translate(48.671 8.798)"/><path class="a" d="M1086.864,425.56a.5.5,0,1,0,.5.5A.5.5,0,0,0,1086.864,425.56Z" transform="translate(-1037.691 -412.933)"/><path class="a" d="M885.636,412.44a.5.5,0,1,0,.5.5A.5.5,0,0,0,885.636,412.44Z" transform="translate(-869.508 -401.967)"/><path class="a" d="M103.29,235.111h2.059l-1.03-2.841Z" transform="translate(-86.327 -194.165)"/><path class="a" d="M831.593,598H829v1.478h2.593c.328,0,.882-.076.882-.739C832.475,598.269,832.137,598,831.593,598Z" transform="translate(-822.595 -557.054)"/><path class="a" d="M945.827,571.85a2.656,2.656,0,0,0,0,5.295,2.728,2.728,0,0,0,.479-.041l-.714-.842a.231.231,0,0,1-.056-.177.238.238,0,0,1,.085-.164l1.306-1.067a.24.24,0,0,1,.328.03l.734.865a3.02,3.02,0,0,0,.263-1.245A2.436,2.436,0,0,0,945.827,571.85Z" transform="translate(-918.2 -535.198)"/><path class="a" d="M832.3,576.739a.728.728,0,0,0-.788-.739H829v1.478h2.514A.713.713,0,0,0,832.3,576.739Z" transform="translate(-822.595 -538.667)"/><path class="a" d="M842.986,528.168l.018.512,1.2,1.251H791.841l1.187-1.251v-.53L790,529.768v17.079h56V529.768Zm-43.514,15.066H794.46c-.131,0-.19-.2-.19-.328v-8.794c0-.131.059-.238.19-.238h4.868a2.516,2.516,0,0,1,2.77,2.48,2.289,2.289,0,0,1-1.061,2.012,2.516,2.516,0,0,1,1.232,2.2A2.576,2.576,0,0,1,799.472,543.234Zm13.087,0h-2.135a.231.231,0,0,1-.223-.149l-.494-1.329h-3.432l-.493,1.329a.235.235,0,0,1-.225.149h-2.125c-.079,0-.153-.089-.2-.154a.307.307,0,0,1-.026-.255l3.388-8.788a.245.245,0,0,1,.223-.164h2.347a.24.24,0,0,1,.223.153l3.371,8.76a.406.406,0,0,1,.038.164A.278.278,0,0,1,812.559,543.234Zm9.336-1.554a.241.241,0,0,1,.057.177.246.246,0,0,1-.087.164l-1.306,1.067a.232.232,0,0,1-.151.054.24.24,0,0,1-.181-.082l-.6-.685a5.29,5.29,0,0,1-2,.386,4.788,4.788,0,1,1,4.826-4.789,4.891,4.891,0,0,1-1.071,3.112Zm2.935,1.343a1.187,1.187,0,1,1,1.189-1.187A1.2,1.2,0,0,1,824.83,543.024Zm8.2-3.165a2.98,2.98,0,0,1-3.255,3.284,3.4,3.4,0,0,1-2.478-.938.238.238,0,0,1-.033-.291l.821-1.424a.232.232,0,0,1,.164-.118.213.213,0,0,1,.187.066,1.687,1.687,0,0,0,1.21.565,1.031,1.031,0,0,0,1.081-1.171v-5.879c0-.133.209-.409.342-.409h1.885c.131,0,.072.276.072.409Zm5.272,3.284a5.312,5.312,0,0,1-3.913-1.467.24.24,0,0,1-.026-.307l1.028-1.463a.238.238,0,0,1,.177-.1.233.233,0,0,1,.19.074A3.621,3.621,0,0,0,838.382,541c.783,0,1.289-.289,1.289-.736s-.755-.606-1.631-.81c-1.448-.338-3.431-.8-3.431-2.956,0-1.69,1.5-2.915,3.575-2.915a5.106,5.106,0,0,1,3.59,1.289.24.24,0,0,1,.03.319l-1.043,1.4a.234.234,0,0,1-.35.033,3.542,3.542,0,0,0-2.394-.9c-.3,0-1,.061-1,.631,0,.355.752.534,1.549.721,1.478.351,3.5.821,3.5,3.01C842.059,541.971,840.617,543.144,838.3,543.144Z" transform="translate(-790 -498.675)"/></g></svg>